<svg width="58" height="58" viewBox="0 0 58 58" fill="none" xmlns="http://www.w3.org/2000/svg">
<circle cx="29" cy="29" r="28.5" fill="white" stroke="black"/>
<path d="M34.8125 23H34.825M24 39H34C36.7614 39 39 36.7614 39 34V24C39 21.2386 36.7614 19 34 19H24C21.2386 19 19 21.2386 19 24V34C19 36.7614 21.2386 39 24 39ZM33.6875 29C33.6875 31.5888 31.5888 33.6875 29 33.6875C26.4112 33.6875 24.3125 31.5888 24.3125 29C24.3125 26.4112 26.4112 24.3125 29 24.3125C31.5888 24.3125 33.6875 26.4112 33.6875 29Z" stroke="black" stroke-width="2" stroke-linecap="round" stroke-linejoin="round"/>
</svg>
