<svg width="41" height="40" viewBox="0 0 41 40" fill="none" xmlns="http://www.w3.org/2000/svg">
<g clip-path="url(#clip0_115_218)">
<path d="M37.0034 16.3491H24.1026V3.64213C24.1026 1.63077 22.4564 0 20.416 0C18.3757 0 16.7303 1.63077 16.7303 3.64301V16.3579H3.82321C1.78285 16.3579 0.124108 17.9886 0.125001 20.0009C0.124108 21.0061 0.536113 21.9277 1.20372 22.5858C1.87222 23.2457 2.79454 23.6624 3.81338 23.6624H16.7303V36.3596C16.7303 37.3658 17.1352 38.2767 17.8037 38.934C18.4722 39.593 19.3918 40.0009 20.4124 40.0009C22.4519 40.0009 24.1026 38.3701 24.1026 36.3596V23.6615H37.0034C39.0438 23.6615 40.6981 22.0167 40.6972 20.0053C40.6963 17.9948 39.042 16.3491 37.0034 16.3491Z" fill="white"/>
</g>
<defs>
<clipPath id="clip0_115_218">
<rect width="40.5767" height="40" fill="white" transform="translate(0.121094)"/>
</clipPath>
</defs>
</svg>
