<svg width="144" height="132" viewBox="0 0 144 132" fill="none" xmlns="http://www.w3.org/2000/svg">
<ellipse cx="71.767" cy="66" rx="71.767" ry="66" fill="white"/>
<path d="M143.034 66C143.034 102.136 111.167 131.5 71.767 131.5C32.3671 131.5 0.5 102.136 0.5 66C0.5 29.864 32.3671 0.5 71.767 0.5C111.167 0.5 143.034 29.864 143.034 66Z" stroke="black" stroke-opacity="0.1"/>
<path d="M10.9063 87.2099C12.9146 85.8527 15.2891 85.135 17.5061 84.1509C19.5065 83.2626 21.5542 82.4881 23.6176 81.7313C24.0272 81.5821 24.4879 81.4329 24.673 80.9994C24.8738 80.9923 25.0786 80.9888 25.2794 80.9817C26.764 81.0918 27.9926 80.3137 29.3629 80.0153C32.0289 79.4362 34.5609 78.4271 37.2937 78.047C38.2349 77.9155 39.0776 77.4998 39.8651 77.0131C40.0857 77.0806 40.2983 77.0664 40.4991 76.9562C41.7435 77.173 42.9209 76.7182 44.1298 76.6116C47.4376 76.3238 50.7257 75.8619 54.0295 75.5067C56.0811 75.2864 58.1367 75.1229 60.1922 74.9524C61.8186 74.8174 63.4488 74.6966 65.0791 74.5971C65.5241 74.5687 65.6737 74.3697 65.6973 74.0144C65.9415 74.1068 65.7682 74.5758 66.2171 74.4799C66.4061 74.5154 66.5952 74.5864 66.7802 74.5793C71.1945 74.4372 75.5852 74.9311 79.9877 75.027C80.8147 75.0448 80.9131 74.7037 80.9092 74.0819C80.8974 71.4137 80.9289 68.749 80.9564 66.0808C80.9564 65.8463 81.0391 65.6118 81.0824 65.3809C81.11 68.28 81.1297 71.1792 81.1691 74.0784C81.173 74.4905 80.984 75.0803 81.8661 74.9098C81.9527 75.329 82.1772 75.5173 82.7088 75.5671C85.1069 75.7909 87.5208 75.798 89.9189 76.1C92.4155 76.4126 94.9042 76.7715 97.3969 77.0806C97.8222 77.1339 98.2317 77.2156 98.6334 77.0237C98.9011 77.2156 99.0941 77.546 99.5312 77.4217C100.315 78.3241 101.547 78.0612 102.563 78.3383C106.556 79.4291 110.581 80.4203 114.526 81.6461C115.31 81.8912 116.086 82.3567 116.999 82.2252C117.192 82.3815 117.228 82.712 117.606 82.6587C121.244 84.4422 125.092 85.8669 128.632 87.821C129.049 88.052 129.687 88.1905 129.534 88.8336C129.364 89.5406 128.703 89.3239 128.214 89.3239C116.751 89.363 105.284 89.3239 93.8253 89.4696C91.3956 89.5016 88.9463 89.7751 86.5048 89.6934C62.0942 88.894 37.6718 89.6224 13.2572 89.3239C12.7177 89.3168 12.1822 89.2813 11.6466 89.2564C11.5364 88.5316 11.3867 87.8175 10.8984 87.2028L10.9063 87.2099ZM42.1491 83.7068C42.2672 82.8292 41.8104 82.0014 41.8892 81.1274C41.9325 80.6477 41.5112 80.5553 41.141 80.4985C39.7943 80.2853 38.8728 80.7827 38.3688 81.9587C37.9474 82.9429 38.2428 85.0142 38.9437 85.2558C39.8415 85.5649 40.8614 85.6467 41.7435 85.3127C42.4956 85.0285 42.0309 84.2539 42.153 83.7103L42.1491 83.7068ZM88.773 82.1293C89.8284 83.3017 89.6905 84.1935 88.4068 84.6909C88.5683 83.9839 88.6628 83.3088 88.3753 82.6515C87.9461 83.3728 88.0563 84.1864 87.7059 84.9148C87.5562 85.2239 87.954 85.3447 88.2769 85.4015C89.5882 85.6289 90.3639 84.9183 90.0843 83.5504C89.9741 83.0068 90.3049 81.9303 88.773 82.1328V82.1293ZM63.3307 82.4419C63.8584 83.5718 63.6181 84.396 62.4565 84.9645C63.1299 85.5791 63.6772 85.3482 64.2876 84.9858C64.0041 84.3392 64.0592 83.6855 64.0631 83.0353C64.0631 82.545 64.1458 82.0369 63.2992 82.0653C62.5589 82.0902 62.4014 82.4881 62.4407 83.0317C62.4644 83.3515 62.3069 83.7032 62.5943 84.0194C63.2519 83.6712 62.6061 82.9287 63.3307 82.4455V82.4419ZM48.8198 85.0249C49.4301 85.6111 49.757 85.3979 50.0011 84.8259C50.4343 83.8133 50.0799 82.7937 50.072 81.7775C50.072 81.4365 50.2768 81.0989 49.8397 80.8751C49.631 80.7685 49.3553 80.7436 49.2017 80.9142C48.8946 81.2588 49.1269 81.5963 49.2411 81.9658C49.5601 83.0175 50.1941 84.1296 48.8198 85.0249ZM78.5347 82.5023C78.6489 82.1151 78.4047 81.9374 78.0149 81.8877C77.5738 81.8273 77.3612 82.1186 77.3021 82.4242C77.1604 83.1667 77.054 83.9199 76.9871 84.6696C76.932 85.2878 77.4124 85.3944 77.9716 85.398C78.5268 85.4051 78.8536 85.2168 78.8379 84.6767C78.83 84.4387 78.8379 84.2042 78.8379 83.9661C78.5425 84.2894 78.3575 84.6732 77.7628 84.6945C77.6132 83.9093 77.6644 83.1774 77.7471 82.4952C78.0818 82.2501 78.2433 82.7937 78.5307 82.4988L78.5347 82.5023ZM93.1755 85.3375C94.1954 85.1528 94.7034 82.3034 94.0497 81.1025C93.9552 81.1522 93.8135 81.1806 93.7741 81.2553C93.0495 82.5201 93.6402 83.9306 93.1795 85.334L93.1755 85.3375ZM100.827 84.7336C100.492 84.6305 100.398 84.4564 100.35 84.2433C100.303 84.0194 100.35 83.7387 99.9762 83.6961C99.7635 83.8631 99.8659 84.0798 99.8423 84.2717C99.7478 84.9858 100.035 85.4051 100.894 85.398C101.748 85.3908 101.725 84.8508 101.709 84.3108C101.697 83.9661 101.709 83.6215 101.693 83.2769C101.654 82.0937 101.315 81.8841 100.055 82.2607C101.354 82.8292 101.61 83.6037 100.823 84.7336H100.827ZM71.037 81.8344C70.8638 82.9216 71.2969 83.888 70.3952 84.5097C69.5131 85.1208 68.6586 84.8011 67.8395 84.1651C67.6426 84.8828 67.8592 85.2097 68.5759 85.2132C69.1862 85.2168 69.8005 85.2132 70.4109 85.2132C70.8795 85.2132 71.3166 85.0391 71.3717 84.6305C71.4899 83.7672 71.6671 82.8754 71.037 81.8344ZM47.7762 80.7401C46.6461 82.282 48.7568 83.9697 46.8312 85.2096C47.9653 85.302 48.1543 85.2025 48.3 84.3676C48.5047 83.1809 48.1228 82.0547 47.7762 80.7401ZM55.7307 80.6086C55.7307 82.0831 55.7267 83.3977 55.7307 84.7087C55.7307 85.032 55.9 85.2594 56.3017 85.1812C56.66 85.1102 56.6285 84.8579 56.5655 84.6021C56.341 83.6748 56.4907 82.7333 56.4277 81.8024C56.4001 81.4045 56.467 80.971 55.7267 80.6122L55.7307 80.6086ZM80.8737 85.1244C81.7361 85.5116 82.2638 85.4299 82.4922 84.9894C82.9057 84.1864 82.8938 83.323 82.5631 82.4739C82.3701 81.9694 81.9842 82.0262 81.5077 82.1648C82.0354 83.2236 82.819 84.3108 80.8737 85.1279V85.1244ZM96.6172 82.378C96.5109 82.3638 96.4045 82.3496 96.2982 82.3353C95.5894 83.1205 95.8493 84.2717 95.0578 85.0427C94.8885 85.2061 95.172 85.501 95.4516 85.572C95.7548 85.6502 96.1801 85.668 96.2392 85.3518C96.4164 84.3676 96.4991 83.3692 96.6172 82.378ZM74.9079 85.2452C75.4947 85.4406 75.8884 85.2878 75.9908 84.9538C76.168 84.3676 76.2153 83.7494 76.2783 83.1383C76.3098 82.847 76.1838 82.5627 75.8097 82.5414C75.3529 82.513 75.4001 82.8541 75.3883 83.1205C75.349 83.824 75.5577 84.563 74.9119 85.2416L74.9079 85.2452ZM52.8994 85.2345C53.6318 85.2878 53.9508 85.0107 53.9153 84.5417C53.8602 83.7352 54.2422 82.8363 53.3443 81.8415C53.0333 83.1347 53.4034 84.1864 52.8954 85.2345H52.8994ZM73.4706 82.1435C73.7581 83.0992 74.7307 84.1509 72.9311 84.7655C72.7579 84.8259 72.813 85.1564 73.0099 85.3091C73.3997 85.6111 74.1834 85.3375 74.2149 84.8615C74.2621 84.1011 74.2424 83.3408 74.2267 82.5769C74.2188 82.1186 73.951 81.9658 73.4706 82.1399V82.1435ZM59.8496 85.0924C60.7002 85.2985 61.094 85.199 61.0507 84.4777C60.9207 82.2643 60.8853 82.1719 59.889 82.2501C60.6569 83.1738 60.5978 84.1082 59.8496 85.0924ZM97.3299 85.3589C97.771 85.4512 98.2671 85.5436 98.2514 84.9645C98.2317 84.1438 98.1096 83.3266 97.9797 82.513C97.9442 82.2963 97.6922 82.211 97.389 82.3922C97.5032 83.3621 97.6922 84.3605 97.326 85.3589H97.3299ZM58.7274 82.2216C58.6013 82.2074 58.4753 82.1897 58.3493 82.1755C58.1682 83.2058 57.9831 84.2397 57.802 85.27C57.9516 85.2949 58.1052 85.3198 58.2548 85.3447C58.7274 84.357 58.6919 83.284 58.7274 82.2216ZM51.8795 82.5912C51.1707 83.3586 52.0842 84.5275 50.9068 85.0569C52.2024 84.9219 52.6473 83.7245 51.8795 82.5912ZM91.7303 82.1932C91.0255 83.2413 91.1672 85.0142 91.8878 85.3802C91.8327 84.2859 91.7815 83.2413 91.7303 82.1932ZM80.4996 82.2145C80.161 83.1099 80.1964 84.0088 80.476 84.9076C81.0234 84.023 80.5548 83.1099 80.4996 82.2145ZM84.9218 85.0995C85.7094 84.2894 85.7409 83.1951 85.0675 82.2572C84.9927 83.2413 85.166 84.1758 84.9218 85.0995ZM86.7254 81.9552C86.812 82.648 86.5088 83.387 86.9853 84.0088C87.0798 83.2946 87.4027 82.5556 86.7254 81.9552ZM45.9412 83.4616C45.6603 83.9922 45.5238 84.5535 45.5317 85.1457C46.4453 84.8615 46.5358 84.4884 45.9412 83.4616Z" fill="#F9C716"/>
<path d="M81.8696 74.9099C80.9875 75.0769 81.1765 74.4871 81.1726 74.0785C81.1371 71.1793 81.1135 68.2802 81.0859 65.381C81.0859 63.9598 81.173 61.3338 81.173 59.9126C81.3305 59.9126 81.3639 59.9126 81.5214 59.9126C81.7695 64.5065 81.8223 70.3124 81.8696 74.9134V74.9099Z" fill="#AE9C63"/>
<path d="M87.6233 41.0188C87.5721 41.0366 87.5209 41.0472 87.4658 41.0543C86.8554 41.1325 86.2805 41.2568 86.0206 41.8537C85.1818 43.1186 84.9928 44.5042 85.0085 45.9538C85.0519 49.4641 85.0637 52.9743 85.0322 56.4811C85.0164 58.5737 83.8351 59.8812 81.7401 60.2898C80.2792 60.574 78.964 60.0055 78.3694 58.762C78.011 58.0124 77.7314 57.2343 77.7275 56.3958C77.7157 47.1191 77.7393 37.8389 77.6487 28.5623C77.629 26.729 78.5859 25.5743 80.0744 24.6292C81.1219 23.9648 83.0278 24.5369 84.095 25.791C84.6896 26.491 85.0716 27.2655 85.0637 28.1857C85.0401 30.6869 85.0519 33.1882 85.0676 35.6894C85.0676 36.0874 84.9259 36.5208 85.3078 36.9507C86.123 36.3894 86.946 35.8635 87.8438 35.423C88.7692 34.9682 89.6434 35.0393 90.6436 34.8936C91.3918 34.787 92.1203 34.7337 92.8173 34.8545C95.1052 35.2453 97.141 36.066 98.7004 37.743C100.583 39.7682 101.193 42.0918 101.142 44.6712C101.063 48.5972 101.095 52.5231 101.071 56.4491C101.071 56.7937 100.984 57.1383 100.965 57.483C100.886 58.9503 99.8109 59.7035 98.4484 60.0873C97.0741 60.471 95.7707 60.0873 94.6799 59.2665C94.1128 58.8437 94.038 58.1794 93.9947 57.554C93.7781 54.2889 93.9474 51.0238 93.9002 47.7587C93.8844 46.7496 93.912 45.7406 93.8687 44.7351C93.7978 43.0937 93.0929 41.7898 91.3485 41.065C91.0807 40.9548 90.8641 40.7488 90.62 40.5889C89.289 40.1235 88.1706 40.2798 87.6154 41.0152L87.6233 41.0188Z" fill="#D50D6F"/>
<path d="M41.8441 64.6525C39.8476 64.1161 37.8157 63.7963 35.7325 63.7217C35.0434 63.6968 34.7245 63.9242 34.5118 64.5353C34.118 65.6651 33.6534 66.8021 32.8067 67.7258C31.8577 68.7562 30.1093 68.8947 28.8807 68.1273C27.4198 67.2213 26.7228 65.5834 27.5694 64.4465C28.5775 63.0928 29.1406 61.5757 29.9321 60.1475C31.5584 57.2199 33.295 54.3349 34.8426 51.3753C36.3272 48.533 37.9062 45.7369 39.6546 43.0295C40.7848 41.278 43.049 40.8552 44.9038 41.4059C46.026 41.7398 46.7191 42.8519 47.2153 43.868C48.4478 46.3906 49.133 49.0624 49.4913 51.7804C49.7276 53.5781 50.3262 55.2942 50.6766 57.0635C51.2082 59.7282 51.9289 62.3716 52.7676 64.9723C53.1614 66.1945 53.1417 67.406 53.2953 68.6247C53.4607 69.9357 52.2242 70.2555 51.3776 70.8239C50.6806 71.2929 50.0387 70.9341 49.3653 70.6179C47.9831 69.9712 47.4122 68.9089 47.1798 67.6086C47.0262 66.7345 47.2231 65.6296 46.3726 65.1073C45.2424 64.4181 43.8169 64.4749 42.4623 64.617C42.2418 64.3541 42.0488 64.5033 41.8519 64.649L41.8441 64.6525ZM37.9417 58.57C40.0012 58.57 41.9464 58.57 43.8917 58.57C44.0453 58.57 44.1989 58.5842 44.3485 58.57C44.8408 58.5309 45.2227 58.2928 45.077 57.8381C44.7856 56.9356 44.9234 56.0048 44.7581 55.1165C44.4352 53.3507 43.876 51.624 43.4743 49.8689C43.3562 49.3466 42.9742 49.1867 42.5411 49.1015C42.0252 48.9984 41.8322 49.375 41.6511 49.741C40.9069 51.2368 40.0681 52.697 39.4184 54.2248C38.8631 55.5251 37.9889 56.7438 37.9417 58.5629V58.57Z" fill="#F9C716"/>
<path d="M65.3998 64.3788C59.9577 63.5758 55.7915 61.1634 53.4682 56.5304C52.5507 54.7006 51.8182 52.8069 51.6213 50.764C51.3378 47.8186 51.9639 45.0829 53.4052 42.4218C54.4605 40.4712 55.949 38.9008 57.8195 37.6431C59.6073 36.4422 61.6904 35.8951 63.9586 35.7068C65.9235 35.5433 67.8255 35.4687 69.7393 35.9342C70.6686 36.1615 71.5665 36.4813 72.2516 37.0569C73.815 38.3715 73.7323 40.7448 72.228 42.1411C71.4326 42.8765 70.5229 42.7771 69.5582 42.6634C67.7743 42.4537 65.9944 42.0025 64.187 42.4609C62.1865 42.9689 60.7689 44.0135 59.9577 45.8361C58.4417 49.2469 59.6073 52.2456 61.5801 55.0737C63.171 57.3511 66.8017 58.1185 68.9517 56.7862C70.0346 56.1182 71.0388 55.3473 72.291 54.9351C73.8977 54.4057 75.4807 54.8179 76.4887 56.0259C77.3629 57.074 77.3236 58.7509 76.221 59.8772C73.8583 62.2932 70.8931 63.7428 67.3136 64.1016C66.9316 64.1407 66.5536 64.1833 66.1716 64.2224C65.8645 64.0768 65.644 64.3006 65.388 64.3788H65.3998Z" fill="#69B330"/>
<path d="M21.4289 68.4469C20.7004 68.4256 19.9679 68.4434 19.2434 68.3794C18.4125 68.3084 17.9163 67.8642 17.5776 67.1608C15.9395 63.7464 15.3961 60.0621 14.3171 56.5091C14.006 55.4859 13.8643 54.3703 13.5611 53.3719C13.1476 52.0041 12.7696 50.6113 12.3364 49.2399C11.9702 48.071 11.7772 46.8559 11.1314 45.7367C8.71013 46.1357 8.71013 46.1357 3.48438 47.0969C4.18114 45.1745 4.46073 43.2532 5.29949 41.6402C5.69721 40.8799 7.0085 40.6063 7.98509 40.3754C12.3994 39.3308 16.8373 38.368 21.2753 37.4016C22.7677 37.0747 24.4177 38.0127 24.9493 39.4232C25.4533 40.7627 24.7721 42.2229 23.2954 42.7985C21.8463 43.3634 20.3223 43.7293 18.7708 43.9851C17.9636 44.1202 17.7588 44.2552 18.0778 45.1008C18.7708 46.9376 19.2119 48.8491 19.7356 50.7357C20.9209 55.0382 22.0747 59.3515 23.2875 63.6505C23.4647 64.2794 23.6577 64.9331 23.7719 65.5478C23.9254 66.3827 23.3387 67.1714 22.6181 67.7577C22.2794 68.0312 21.8541 68.216 21.4682 68.4434L21.4249 68.4469H21.4289Z" fill="#D61F40"/>
<path d="M132.167 62.3252C133.301 63.5723 134.459 64.8016 135.566 66.0665C136.271 66.873 136.948 67.7079 137.562 68.5748C138.054 69.2676 138.22 70.0422 137.921 70.8629C137.361 72.3871 136.42 73.5702 134.707 74.231C132.278 75.1654 129.817 75.6025 127.21 75.0127C125.772 74.6894 125.383 74.2914 125.257 72.9449C125.083 71.1045 125.772 69.3991 126.304 67.6724C126.717 66.3258 127.229 64.997 127.3 63.3627C126.221 64.052 126.028 65.0326 125.623 65.8497C124.477 68.1627 123.181 70.4188 122.248 72.817C122.169 73.023 122.087 73.3819 121.523 73.3499C121.681 71.847 122.374 70.5111 123.126 69.2463C124.087 67.6333 124.792 65.9208 125.741 64.3113C125.977 63.9098 125.997 63.4764 125.946 63.0323C126.099 63.1069 126.182 63.2916 126.426 63.2312C127.753 62.9079 129.088 62.6166 130.403 62.2719C131.014 62.1121 131.589 61.9699 132.167 62.3252Z" fill="#EB7B16"/>
<path d="M124.956 57.8846C123.861 57.2557 122.499 57.4653 121.384 57.0283C119.026 56.101 116.391 55.7919 114.217 54.4773C113.012 53.749 112.674 52.6724 112.949 51.3863C113.658 48.0714 115.926 45.8686 119.108 44.3373C120.853 43.4988 122.073 43.9252 122.948 45.524C124.428 48.2313 125.365 51.1056 126.204 54.0119C126.366 54.5768 126.724 55.1026 126.689 55.7137C126.933 56.9679 125.716 57.2735 124.96 57.8774L124.956 57.8846Z" fill="#EB7B16"/>
<path d="M125.631 62.713C124.217 64.1093 123.11 65.7045 121.961 67.2785C121.015 68.5717 119.704 69.6696 117.901 69.6874C115.987 69.7051 114.628 68.5327 113.632 67.1932C112.494 65.6619 111.836 63.9174 111.557 62.0699C111.462 61.4482 111.427 60.83 111.537 60.2082C111.75 58.9682 112.155 58.6591 113.541 58.485C117.188 58.0303 120.826 58.5206 124.473 58.5135C125.528 59.7641 125.824 61.1852 125.631 62.7166V62.713Z" fill="#EB7B16"/>
<path d="M128.691 55.2197C128.75 52.1358 129.132 49.0803 129.668 46.0426C129.892 44.7706 130.857 44.021 132.287 43.7687C135.035 43.2819 138.709 44.529 139.839 46.4547C140.895 48.2489 141.275 50.2195 141.444 52.2233C140.546 52.2731 139.58 52.6865 138.977 53.0524C136.859 54.3422 134.634 55.4755 132.302 56.4384C130.964 56.3531 129.735 56.0049 128.688 55.2197H128.691Z" fill="#EB7B16"/>
<path d="M132.717 57.8842C135.446 56.6691 138.561 55.3185 141.794 54.4658C142.49 58.3105 143.823 63.1096 142.839 66.961C139.799 65.5789 135.111 63.1282 132.717 61.1457C132.197 60.0585 131.752 58.9713 132.717 57.8842Z" fill="#EB7B16"/>
<path d="M108.84 37.8461C108.868 35.8209 110.766 34.112 112.932 34.1581C114.877 34.2008 117.275 36.4036 117.177 38.0628C117.074 39.8428 114.708 41.8573 112.747 41.836C110.648 41.8111 108.805 39.9352 108.836 37.8496L108.84 37.8461Z" fill="#1780B9"/>
<path d="M132.715 57.8844C131.75 58.9716 132.199 60.0588 132.715 61.146C132.372 61.48 132.092 61.8352 132.163 62.3255C131.588 61.9703 131.009 62.1124 130.399 62.2723C129.08 62.6169 127.745 62.9082 126.422 63.2315C126.178 63.2919 126.091 63.1072 125.941 63.0326C125.839 62.9295 125.737 62.8194 125.634 62.7128C125.823 61.1815 125.532 59.7603 124.477 58.5097C124.473 58.1971 124.768 58.0727 124.961 57.8844C125.717 57.2804 126.934 56.9749 126.69 55.7207C127.713 56.7155 128.103 55.6283 128.698 55.2197C129.741 56.0049 130.97 56.3531 132.309 56.4384C132.195 56.9784 132.1 57.5149 132.718 57.8844H132.715Z" fill="#F9C716"/>
<path d="M21.4292 68.4469L21.4725 68.4434C22.3704 69.9889 22.5909 71.7227 23.1067 73.3748C23.8943 75.8938 24.5637 78.4448 25.2804 80.9816C25.0757 80.9887 24.8748 80.9922 24.674 80.9993C23.6344 77.3612 22.5909 73.7265 21.5513 70.0919C21.3977 69.5519 21.319 69.0047 21.4332 68.4505L21.4292 68.4469Z" fill="#AE9C63"/>
<path d="M41.8479 64.6528C42.0408 64.5071 42.2377 64.3579 42.4582 64.6208C41.6786 68.7173 41.1076 72.8387 40.5051 76.9565C40.3043 77.0667 40.0916 77.0773 39.8711 77.0098C40.383 72.8707 41.0288 68.7493 41.8479 64.6528Z" fill="#AE9C63"/>
<path d="M117.61 82.6629C117.232 82.7198 117.196 82.3858 117.003 82.2295C116.972 82.1868 116.98 82.1478 117.027 82.1158C117.086 82.0376 117.145 81.9595 117.208 81.8813C118.055 79.7247 120.461 73.6506 121.934 71.7676L122.282 72.7287C121.262 75.0168 118.634 80.3748 117.614 82.6629H117.61Z" fill="#EB7B16"/>
<path d="M65.3984 64.3793C65.6544 64.3047 65.871 64.0773 66.1821 64.223C66.1939 67.6409 66.2096 71.0624 66.2214 74.4803C65.7725 74.5726 65.9458 74.1037 65.7016 74.0113C65.6859 71.2258 65.6701 68.4403 65.6505 65.6548C65.6505 65.2178 65.7528 64.7595 65.3984 64.3758V64.3793Z" fill="#AE9C63"/>
<path d="M99.5385 77.426C99.0974 77.5503 98.9084 77.2199 98.6406 77.0281C99.4046 74.9638 100.668 69.5744 101.731 67.6025C101.857 67.6381 102.08 67.9229 102.08 67.9229C101.583 69.5786 100.169 74.2106 99.6015 75.845C99.4085 76.3992 99.2707 76.8895 99.5385 77.426Z" fill="#AE9C63"/>
<path d="M10.903 87.21C11.3913 87.8246 11.537 88.5387 11.6512 89.2635C10.5762 89.1818 10.7652 88.2794 10.4541 87.718C10.2848 87.4089 10.521 87.2135 10.903 87.21Z" fill="#AE9C63"/>
<path d="M103.262 68.1988C100.746 68.11 99.2416 66.3406 99.8559 64.0881C100.325 62.372 101.049 60.727 101.663 59.05C103.254 54.7297 104.707 50.3703 106.243 46.0357C107.031 43.8152 109.283 42.9838 111.39 44.0923C112.748 44.8064 113.497 46.7072 112.973 48.3131C112.24 50.5692 111.559 52.8431 110.661 55.0459C109.252 58.51 108.377 62.1233 106.877 65.5554C105.987 67.5912 105.196 68.2165 103.258 68.1917L103.262 68.1988Z" fill="#1780B9"/>
<path d="M87.5625 41.0225C87.909 40.0099 90.0906 39.9957 91.1499 40.9443C90.0512 40.8839 88.5588 40.5322 87.5625 41.0225Z" fill="#D50D6F"/>
<path d="M117.211 81.8809C117.152 81.959 117.093 82.0372 117.03 82.1154C117.002 81.9839 117.069 81.9093 117.211 81.8809Z" fill="#F9C716"/>
<path d="M42.1429 83.7072C42.0208 84.2508 42.4855 85.0253 41.7333 85.3095C40.8473 85.6435 39.8274 85.5618 38.9335 85.2527C38.2326 85.0111 37.9373 82.9397 38.3586 81.9556C38.8627 80.7796 39.7881 80.2822 41.1309 80.4953C41.501 80.5557 41.9224 80.6446 41.879 81.1242C41.8003 81.9982 42.261 82.826 42.1389 83.7036L42.1429 83.7072ZM41.6349 83.0854C41.6231 82.7443 41.694 82.4068 41.5325 82.0657C41.0285 80.9927 40.3827 80.7831 39.5833 81.4617C39.0438 81.9165 38.6382 83.7356 38.9965 84.2934C39.3076 84.7766 39.8314 84.972 40.4417 85.0075C41.0836 85.0466 41.2647 84.6238 41.4853 84.2081C41.6782 83.8457 41.6113 83.462 41.6349 83.089V83.0854Z" fill="#F9C716"/>
<path d="M88.7718 82.1303C90.3036 81.9242 89.9728 83.0043 90.083 83.5479C90.3626 84.9158 89.5869 85.6263 88.2756 85.399C87.9487 85.3421 87.555 85.2213 87.7046 84.9122C88.0551 84.1874 87.9448 83.3703 88.374 82.649C88.6654 83.3099 88.567 83.9814 88.4055 84.6884C89.6893 84.191 89.8271 83.2992 88.7718 82.1267V82.1303Z" fill="#F9C716"/>
<path d="M63.3276 82.4418C62.6031 82.9215 63.2489 83.6676 62.5913 84.0158C62.3038 83.7031 62.4574 83.3514 62.4377 83.0281C62.3983 82.488 62.5558 82.0865 63.2961 82.0617C64.1467 82.0333 64.064 82.5449 64.0601 83.0316C64.0601 83.6818 64.001 84.3355 64.2845 84.9822C63.6742 85.341 63.1268 85.5755 62.4534 84.9609C63.6151 84.3924 63.8553 83.5681 63.3276 82.4383V82.4418Z" fill="#F9C716"/>
<path d="M48.8203 85.0254C50.1946 84.1266 49.5606 83.0145 49.2417 81.9664C49.1275 81.5969 48.8951 81.2558 49.2023 80.9147C49.3519 80.7477 49.6315 80.769 49.8402 80.8756C50.2773 81.0995 50.0686 81.4406 50.0725 81.7781C50.0844 82.7978 50.4348 83.8174 50.0017 84.8265C49.7575 85.3985 49.4307 85.6117 48.8203 85.0254Z" fill="#F9C716"/>
<path d="M78.5318 82.502C78.2443 82.7933 78.0828 82.2533 77.7481 82.4984C77.6654 83.177 77.6142 83.9125 77.7639 84.6977C78.3546 84.6764 78.5436 84.2927 78.8389 83.9694C78.8389 84.2074 78.835 84.4419 78.8389 84.6799C78.8547 85.22 78.5278 85.4083 77.9726 85.4012C77.4173 85.3941 76.9369 85.291 76.9881 84.6728C77.0551 83.9196 77.1575 83.1699 77.3032 82.4274C77.3622 82.1183 77.5749 81.8305 78.0159 81.8909C78.4057 81.9442 78.6499 82.1183 78.5357 82.5055L78.5318 82.502Z" fill="#F9C716"/>
<path d="M93.1719 85.338C93.6326 83.9346 93.042 82.5205 93.7665 81.2592C93.8098 81.1846 93.9477 81.1562 94.0422 81.1064C94.6998 82.3073 94.1918 85.1532 93.168 85.3415L93.1719 85.338Z" fill="#F9C716"/>
<path d="M100.826 84.734C101.613 83.6041 101.357 82.8296 100.058 82.2611C101.318 81.8845 101.661 82.0941 101.696 83.2773C101.708 83.6219 101.7 83.9665 101.712 84.3112C101.728 84.8512 101.751 85.3877 100.897 85.3984C100.038 85.4055 99.7508 84.9862 99.8453 84.2721C99.8729 84.0802 99.7666 83.8635 99.9792 83.6965C100.353 83.7391 100.306 84.0198 100.353 84.2437C100.397 84.4604 100.495 84.6345 100.83 84.734H100.826Z" fill="#F9C716"/>
<path d="M71.0319 81.834C71.6619 82.875 71.4808 83.7668 71.3666 84.6301C71.3114 85.0387 70.8743 85.2164 70.4057 85.2128C69.7954 85.2128 69.1811 85.2164 68.5707 85.2128C67.858 85.2057 67.6374 84.8824 67.8343 84.1647C68.6495 84.8007 69.504 85.1204 70.39 84.5093C71.2917 83.8876 70.8625 82.9212 71.0319 81.834Z" fill="#F9C716"/>
<path d="M47.7732 80.7402C48.1197 82.0548 48.5017 83.1811 48.2969 84.3678C48.1552 85.1991 47.9622 85.3022 46.8281 85.2098C48.7537 83.9698 46.643 82.2858 47.7732 80.7402Z" fill="#F9C716"/>
<path d="M55.7266 80.609C56.4669 80.9679 56.3999 81.4049 56.4275 81.7992C56.4905 82.7337 56.3409 83.6752 56.5653 84.5989C56.6283 84.8547 56.6598 85.107 56.3015 85.1781C55.8998 85.2562 55.7305 85.0324 55.7305 84.7055C55.7226 83.3945 55.7305 82.0799 55.7305 80.6055L55.7266 80.609Z" fill="#F9C716"/>
<path d="M80.8672 85.1244C82.8085 84.3108 82.0249 83.2201 81.5012 82.1613C81.9777 82.0227 82.3636 81.9695 82.5565 82.4704C82.8834 83.3196 82.8952 84.1829 82.4856 84.9859C82.2572 85.4264 81.7296 85.5082 80.8672 85.1209V85.1244Z" fill="#F9C716"/>
<path d="M96.6143 82.3781C96.4961 83.3693 96.4135 84.3677 96.2363 85.3519C96.1772 85.6681 95.7519 85.6503 95.4487 85.5721C95.1691 85.5011 94.8856 85.2062 95.0549 85.0428C95.8464 84.2718 95.5865 83.1171 96.2953 82.3354C96.4016 82.3497 96.508 82.3639 96.6143 82.3781Z" fill="#F9C716"/>
<path d="M74.9024 85.2448C75.5482 84.5627 75.3395 83.8272 75.3789 83.1238C75.3946 82.8573 75.3434 82.5162 75.8002 82.5446C76.1743 82.566 76.3003 82.8502 76.2688 83.1415C76.2058 83.7491 76.1585 84.3708 75.9813 84.9571C75.879 85.291 75.4852 85.4438 74.8984 85.2484L74.9024 85.2448Z" fill="#F9C716"/>
<path d="M52.8984 85.2348C53.4064 84.1867 53.0363 83.1351 53.3474 81.8418C54.2452 82.8331 53.8632 83.7355 53.9183 84.542C53.9498 85.011 53.6309 85.2881 52.9024 85.2348H52.8984Z" fill="#F9C716"/>
<path d="M73.4676 82.1437C73.948 81.9661 74.2119 82.1224 74.2237 82.5808C74.2394 83.3411 74.2591 84.105 74.2119 84.8653C74.1843 85.3414 73.3967 85.6149 73.0069 85.3129C72.81 85.1602 72.7549 84.8262 72.9281 84.7694C74.7277 84.1547 73.7511 83.103 73.4676 82.1473V82.1437Z" fill="#F9C716"/>
<path d="M59.8438 85.0934C60.5919 84.1093 60.651 83.1784 59.8831 82.2511C60.8794 82.1729 60.9148 82.2618 61.0448 84.4788C61.0881 85.2 60.6904 85.3031 59.8438 85.0934Z" fill="#F9C716"/>
<path d="M97.3281 85.3587C97.6943 84.3603 97.5053 83.362 97.3911 82.392C97.6943 82.2108 97.9464 82.2961 97.9818 82.5128C98.1118 83.3264 98.2338 84.1436 98.2535 84.9643C98.2693 85.5434 97.7731 85.4511 97.3321 85.3587H97.3281Z" fill="#F9C716"/>
<path d="M58.7262 82.222C58.6947 83.2843 58.7262 84.3573 58.2536 85.345C58.104 85.3201 57.9504 85.2952 57.8008 85.2704C57.9819 84.24 58.167 83.2061 58.3481 82.1758C58.4742 82.19 58.6002 82.2078 58.7262 82.222Z" fill="#F9C716"/>
<path d="M51.875 82.5918C52.6429 83.7252 52.1979 84.9225 50.9023 85.0575C52.0837 84.5246 51.1662 83.3592 51.875 82.5918Z" fill="#F9C716"/>
<path d="M91.7273 82.1934C91.7785 83.2379 91.8297 84.2825 91.8848 85.3803C91.1642 85.0144 91.0224 83.245 91.7273 82.1934Z" fill="#F9C716"/>
<path d="M80.4961 82.2148C80.5512 83.1102 81.0198 84.0233 80.4725 84.9079C80.1929 84.0091 80.1614 83.1137 80.4961 82.2148Z" fill="#F9C716"/>
<path d="M84.918 85.0997C85.1621 84.1759 84.9888 83.2415 85.0637 82.2573C85.737 83.1953 85.7055 84.2896 84.918 85.0997Z" fill="#F9C716"/>
<path d="M86.7198 81.9556C87.3971 82.556 87.0742 83.295 86.9797 84.0091C86.5032 83.3909 86.8064 82.6519 86.7198 81.9556Z" fill="#F9C716"/>
<path d="M45.9409 83.4619C46.5355 84.4887 46.445 84.8653 45.5314 85.146C45.5261 84.5538 45.6627 83.9925 45.9409 83.4619Z" fill="#F9C716"/>
<path d="M41.6373 83.0853C41.6137 83.4619 41.6806 83.8421 41.4877 84.2045C41.2671 84.6166 41.086 85.0394 40.4441 85.0039C39.8338 84.9684 39.3061 84.773 38.999 84.2898C38.6406 83.732 39.0462 81.9129 39.5857 81.4581C40.389 80.7795 41.0309 80.9891 41.5349 82.0621C41.6964 82.4032 41.6255 82.7407 41.6373 83.0818V83.0853Z" fill="#F9C716"/>
</svg>
