<svg width="58" height="58" viewBox="0 0 58 58" fill="none" xmlns="http://www.w3.org/2000/svg">
<circle cx="29" cy="29" r="28.5" fill="white" stroke="black"/>
<path d="M24.7725 26.8623C25.2447 26.5468 25.5863 26.3355 25.2788 25.4187C24.9714 24.502 24.7361 23.6955 23.9936 24.8103C22.9036 26.4479 25.0451 29.5387 27.0534 31.2932C29.0616 33.0477 32.4437 34.7826 33.9201 33.4825C34.9251 32.5971 34.0943 32.4722 33.1446 32.2906C32.1949 32.109 32.0313 32.4759 31.7821 32.9862M41 29C41 35.6274 35.6274 41 29 41C26.8143 41 24.765 40.4156 23 39.3946L17 41L18.8314 35.3748C17.6711 33.5278 17 31.3422 17 29C17 22.3726 22.3726 17 29 17C35.6274 17 41 22.3726 41 29Z" stroke="black" stroke-width="2" stroke-linecap="round" stroke-linejoin="round"/>
</svg>
